<svg width="95" height="95" viewBox="0 0 95 95" fill="none" xmlns="http://www.w3.org/2000/svg">
<path d="M45.2505 1.22397C46.497 -0.00837541 48.503 -0.00837553 49.7495 1.22397C50.8351 2.29726 52.5277 2.4541 53.792 1.59857C55.2437 0.616245 57.2156 0.984845 58.2144 2.42524C59.0843 3.67974 60.7193 4.14493 62.1193 3.53628C63.7267 2.83744 65.5973 3.56208 66.3144 5.16149C66.939 6.55446 68.4606 7.31217 69.9487 6.97113C71.6572 6.57956 73.3627 7.63557 73.7737 9.33952C74.1317 10.8235 75.4882 11.848 77.0136 11.7861C78.765 11.7152 80.2474 13.0666 80.3383 14.8171C80.4175 16.3416 81.5627 17.5978 83.0735 17.8173C84.8081 18.0694 86.0169 19.6702 85.7847 21.4076C85.5824 22.9207 86.4773 24.366 87.9219 24.8594C89.5807 25.4258 90.4748 27.2215 89.9273 28.8866C89.4504 30.3368 90.0645 31.9219 91.3939 32.6724C92.9203 33.534 93.4693 35.4634 92.6251 36.9996C91.8898 38.3374 92.2022 40.0084 93.3711 40.9903C94.7132 42.1178 94.8983 44.1152 93.7862 45.4701C92.8176 46.6501 92.8176 48.3499 93.7862 49.5299C94.8983 50.8848 94.7132 52.8822 93.3711 54.0097C92.2022 54.9916 91.8898 56.6626 92.6251 58.0004C93.4693 59.5366 92.9203 61.466 91.3939 62.3276C90.0645 63.0781 89.4504 64.6632 89.9273 66.1134C90.4748 67.7785 89.5807 69.5742 87.9219 70.1406C86.4773 70.634 85.5824 72.0793 85.7847 73.5924C86.0169 75.3298 84.8081 76.9306 83.0735 77.1827C81.5627 77.4022 80.4175 78.6584 80.3383 80.1829C80.2474 81.9334 78.765 83.2848 77.0136 83.2139C75.4882 83.152 74.1317 84.1765 73.7737 85.6605C73.3627 87.3644 71.6572 88.4204 69.9487 88.0289C68.4606 87.6878 66.939 88.4455 66.3144 89.8385C65.5973 91.4379 63.7267 92.1626 62.1193 91.4637C60.7193 90.8551 59.0843 91.3203 58.2144 92.5748C57.2156 94.0152 55.2437 94.3838 53.792 93.4014C52.5277 92.5459 50.8351 92.7027 49.7495 93.776C48.503 95.0084 46.497 95.0084 45.2505 93.776C44.1649 92.7027 42.4723 92.5459 41.208 93.4014C39.7563 94.3838 37.7844 94.0152 36.7856 92.5748C35.9157 91.3203 34.2807 90.8551 32.8807 91.4637C31.2733 92.1626 29.4027 91.4379 28.6856 89.8385C28.061 88.4455 26.5394 87.6878 25.0513 88.0289C23.3428 88.4204 21.6373 87.3644 21.2263 85.6605C20.8683 84.1765 19.5118 83.152 17.9864 83.2139C16.235 83.2848 14.7526 81.9334 14.6617 80.1829C14.5825 78.6584 13.4373 77.4022 11.9265 77.1827C10.1919 76.9306 8.98306 75.3298 9.21532 73.5924C9.41761 72.0793 8.52273 70.634 7.07807 70.1406C5.41932 69.5742 4.52517 67.7785 5.07272 66.1134C5.5496 64.6632 4.93553 63.0781 3.60612 62.3276C2.07971 61.466 1.53074 59.5366 2.37493 58.0004C3.11016 56.6626 2.79781 54.9916 1.62893 54.0097C0.286833 52.8822 0.101743 50.8848 1.21382 49.5299C2.18237 48.3499 2.18237 46.6501 1.21382 45.4701C0.101743 44.1152 0.286833 42.1178 1.62893 40.9903C2.79781 40.0084 3.11016 38.3374 2.37493 36.9996C1.53074 35.4634 2.07971 33.534 3.60612 32.6724C4.93553 31.9219 5.5496 30.3368 5.07272 28.8866C4.52517 27.2215 5.41932 25.4258 7.07807 24.8594C8.52273 24.366 9.41761 22.9207 9.21532 21.4076C8.98306 19.6702 10.1919 18.0694 11.9265 17.8173C13.4373 17.5978 14.5825 16.3416 14.6617 14.8171C14.7526 13.0666 16.235 11.7152 17.9864 11.7861C19.5118 11.848 20.8683 10.8235 21.2263 9.33952C21.6373 7.63557 23.3428 6.57956 25.0513 6.97113C26.5394 7.31217 28.061 6.55446 28.6856 5.16149C29.4027 3.56208 31.2733 2.83744 32.8807 3.53628C34.2807 4.14493 35.9157 3.67974 36.7856 2.42524C37.7844 0.984845 39.7563 0.616245 41.208 1.59857C42.4723 2.4541 44.1649 2.29726 45.2505 1.22397Z" fill="white"/>
</svg>
