<svg width="461" height="80" viewBox="0 0 461 80" fill="none" xmlns="http://www.w3.org/2000/svg">
<path d="M45.1557 34.2751L45.7647 22.6547L22.5238 21.4367L22.9806 12.7214L47.674 14.0155L48.2068 3.84767L3.17773 1.48779L0.665609 49.422L21.0013 50.4878L21.9148 33.0571L45.1557 34.2751Z" stroke="white"/>
<path d="M395.367 22.0415L343.075 19.301L342.466 30.9215L358.444 31.7588L356.541 68.0726L376.877 69.1384L378.78 32.8246L394.758 33.662L395.367 22.0415Z" stroke="white"/>
<path d="M509.059 76.0658L511.571 28.1316L540.622 29.654L555.077 59.5425L556.6 30.4914L574.031 31.4049L571.519 79.3391L542.467 77.8166L528.088 46.4757L526.489 76.9793L509.059 76.0658Z" stroke="white"/>
</svg>
