<svg width="142" height="62" viewBox="0 0 142 62" fill="none" xmlns="http://www.w3.org/2000/svg">
<path d="M76.1095 61.68C93.142 61.68 106.95 47.8725 106.95 30.84C106.95 13.8075 93.142 0 76.1095 0C59.0771 0 45.2695 13.8075 45.2695 30.84C45.2695 47.8725 59.0771 61.68 76.1095 61.68Z" fill="#FFAF23"/>
<path d="M0 39.7799V16.3799H5.13V25.0999C5.50417 24.0414 6.21336 23.1338 7.14998 22.5148C8.0866 21.8958 9.19955 21.5992 10.32 21.6699H10.54C11.3971 21.6231 12.2525 21.7885 13.0305 22.1513C13.8084 22.5141 14.4849 23.0632 15 23.7499C16.132 25.5376 16.6676 27.6384 16.53 29.7499V39.7499H11.41V29.4599C11.4297 29.0359 11.3628 28.6124 11.2132 28.2152C11.0636 27.818 10.8345 27.4555 10.54 27.1499C10.2582 26.8496 9.91477 26.6137 9.53335 26.4584C9.15192 26.3031 8.74145 26.2319 8.33 26.2499C7.89105 26.2389 7.45488 26.3226 7.05112 26.4951C6.64736 26.6677 6.28546 26.9251 5.99 27.2499C5.40042 27.9225 5.09245 28.7963 5.13 29.6899V39.7799H0Z" fill="white"/>
<path d="M27.0698 40.3202C26.1887 40.3669 25.3087 40.2108 24.4973 39.8641C23.686 39.5174 22.965 38.9892 22.3898 38.3202C21.2998 37.0102 20.7598 35.0302 20.7598 32.3202V22.2202H25.8898V32.6602C25.8668 33.0681 25.9258 33.4764 26.0632 33.8611C26.2006 34.2458 26.4136 34.5991 26.6898 34.9002C26.9675 35.1827 27.3016 35.4035 27.6703 35.5482C28.039 35.6929 28.4341 35.7584 28.8298 35.7402C29.2446 35.7588 29.6588 35.6911 30.0461 35.5413C30.4334 35.3916 30.7854 35.163 31.0798 34.8702C31.3743 34.5589 31.6024 34.1909 31.7503 33.7886C31.8981 33.3863 31.9626 32.9582 31.9398 32.5302V22.2202H37.0698V39.7802H32.9998V35.6702C32.2731 38.7702 30.3731 40.3202 27.2998 40.3202H27.0698Z" fill="white"/>
<path d="M42.2597 39.7799V20.1599H40.1797V16.3799H47.4197V39.7799H42.2597Z" fill="white"/>
<path d="M60.9395 40.3798C59.1065 40.4355 57.2915 40.0042 55.6795 39.1298C54.3136 38.3638 53.1855 37.2357 52.4195 35.8698C51.6691 34.5036 51.2802 32.9684 51.2895 31.4098V30.6698C51.2738 29.0907 51.6739 27.5353 52.4495 26.1598C53.235 24.7745 54.3872 23.6327 55.7795 22.8598C57.3756 22.0387 59.1446 21.6104 60.9395 21.6104C62.7344 21.6104 64.5034 22.0387 66.0995 22.8598C67.5005 23.621 68.6556 24.7657 69.4295 26.1598C70.2228 27.5294 70.6338 29.087 70.6195 30.6698V31.4098C70.6265 32.9719 70.2267 34.509 69.4595 35.8698C68.6899 37.2364 67.5585 38.3644 66.1895 39.1298C64.5835 40.0102 62.77 40.442 60.9395 40.3798ZM60.9395 36.0598C61.5704 36.1004 62.2022 35.9943 62.7852 35.7496C63.3682 35.505 63.8865 35.1285 64.2995 34.6498C65.1104 33.6327 65.5323 32.3599 65.4895 31.0598C65.5384 29.7355 65.1049 28.4385 64.2695 27.4098C63.8486 26.9443 63.3347 26.5723 62.7612 26.3177C62.1876 26.0631 61.567 25.9316 60.9395 25.9316C60.312 25.9316 59.6914 26.0631 59.1178 26.3177C58.5443 26.5723 58.0304 26.9443 57.6095 27.4098C56.7921 28.4465 56.3702 29.7404 56.4195 31.0598C56.3781 32.3531 56.7843 33.6212 57.5695 34.6498C57.9845 35.1287 58.5046 35.5052 59.0892 35.7498C59.6739 35.9943 60.3071 36.1005 60.9395 36.0598Z" fill="white"/>
<path d="M91.3008 40.3798C89.4708 40.4371 87.6586 40.0056 86.0508 39.1298C84.684 38.3615 83.5532 37.2342 82.7808 35.8698C82.0335 34.5028 81.6479 32.9676 81.6608 31.4098V30.6698C81.642 29.0916 82.0386 27.5363 82.8108 26.1598C83.5963 24.7745 84.7485 23.6327 86.1408 22.8598C87.7369 22.0387 89.5059 21.6104 91.3008 21.6104C93.0957 21.6104 94.8647 22.0387 96.4608 22.8598C97.8638 23.6183 99.0196 24.7636 99.7908 26.1598C100.591 27.5275 101.009 29.0851 101.001 30.6698V31.4098C101.011 32.971 100.614 34.508 99.8508 35.8698C99.0783 37.2342 97.9476 38.3615 96.5808 39.1298C94.9656 40.0146 93.1413 40.4464 91.3008 40.3798ZM91.3008 36.0598C91.9333 36.1012 92.5668 35.9955 93.1515 35.7508C93.7362 35.5062 94.2563 35.1293 94.6708 34.6498C95.4781 33.6313 95.8964 32.3586 95.8508 31.0598C95.9025 29.7367 95.4726 28.4399 94.6408 27.4098C94.2189 26.9441 93.7043 26.5719 93.1299 26.3173C92.5555 26.0626 91.9341 25.931 91.3058 25.931C90.6775 25.931 90.0561 26.0626 89.4817 26.3173C88.9073 26.5719 88.3926 26.9441 87.9708 27.4098C87.1569 28.4479 86.7387 29.7416 86.7908 31.0598C86.7444 32.3538 87.1511 33.6235 87.9408 34.6498C88.3538 35.1285 88.8721 35.505 89.4551 35.7496C90.0381 35.9943 90.6699 36.1004 91.3008 36.0598Z" fill="white"/>
<path d="M73.2891 38.78V35C73.2891 34.7348 73.3944 34.4804 73.582 34.2929C73.7695 34.1054 74.0238 34 74.2891 34H77.9291C78.1943 34 78.4486 34.1054 78.6362 34.2929C78.8237 34.4804 78.9291 34.7348 78.9291 35V38.74C78.9291 39.0052 78.8237 39.2596 78.6362 39.4471C78.4486 39.6346 78.1943 39.74 77.9291 39.74H74.2891C74.0306 39.7402 73.7822 39.6404 73.5957 39.4614C73.4093 39.2824 73.2994 39.0382 73.2891 38.78Z" fill="white"/>
<path d="M95.4707 24.6199V16.3799H101.001V39.7799H96.5607V36.0899C96.5607 33.7599 95.4707 27.9199 95.4707 24.6199Z" fill="white"/>
<path d="M113.56 40.3802C112.187 40.4135 110.823 40.1509 109.56 39.6102C108.479 39.1525 107.508 38.4708 106.71 37.6102C105.952 36.7445 105.371 35.7389 105 34.6502C104.615 33.5821 104.419 32.4554 104.42 31.3202V30.6702C104.417 29.5251 104.614 28.3882 105 27.3102C105.376 26.2312 105.964 25.2384 106.73 24.3902C107.505 23.5348 108.453 22.8532 109.51 22.3902C110.721 21.8533 112.036 21.5904 113.36 21.6202C115.033 21.5597 116.685 22.0058 118.1 22.9002C119.387 23.7007 120.425 24.8432 121.1 26.2002C121.779 27.5735 122.121 29.0884 122.1 30.6202V32.3502H109.27C109.374 33.4144 109.824 34.4153 110.55 35.2002C110.959 35.5562 111.435 35.8278 111.95 35.9995C112.465 36.1711 113.009 36.2393 113.55 36.2002C114.341 36.2301 115.127 36.0544 115.83 35.6902C116.39 35.3837 116.83 34.8976 117.08 34.3102H121.79C121.43 36.0716 120.437 37.6403 119 38.7202C117.423 39.8667 115.508 40.4512 113.56 40.3802ZM113.37 25.7702C112.365 25.7412 111.388 26.0992 110.64 26.7702C109.907 27.4933 109.444 28.4466 109.33 29.4702H117.21C117.12 28.4521 116.678 27.4972 115.96 26.7702C115.62 26.4352 115.214 26.1735 114.769 26.0015C114.323 25.8295 113.847 25.7508 113.37 25.7702Z" fill="white"/>
<path d="M129 39.7802L123.75 22.2202H129L132.74 35.5102H133.48L136.72 22.2202H141.65L137.1 39.7802H129Z" fill="white"/>
</svg>
