<svg width="190" height="40" viewBox="0 0 190 40" fill="none" xmlns="http://www.w3.org/2000/svg">
<path d="M112.111 34.1297L114.564 20.9489C114.868 19.3422 115.1 17.9306 115.252 16.6082H116.3L115.916 19.253H115.969C117.067 17.6 118.614 16.4297 120.234 16.4297C122.548 16.4297 123.424 18.3537 123.424 20.3704C123.424 24.5094 120.591 29.2667 116.683 29.2667C115.483 29.2667 114.7 28.8402 114.23 28.8402H114.181L113.209 34.1297H112.111ZM114.425 27.4517C115.121 27.9355 115.956 28.1782 116.802 28.1427C120.046 28.1427 122.294 23.5441 122.294 20.4034C122.294 18.9488 121.732 17.3124 119.917 17.3124C118.181 17.3124 115.907 19.534 115.219 23.2366L114.425 27.4517Z" fill="white"/>
<path d="M131.752 29.1709C131.766 28.0627 131.868 26.9572 132.056 25.865H132.006C130.601 28.5097 129.031 29.2635 127.434 29.2635C125.57 29.2635 124.459 27.6535 124.459 25.4584C124.459 21.2697 127.434 16.3802 132.198 16.3802C133.036 16.3602 133.871 16.4717 134.674 16.7108L133.372 23.445C132.996 25.3267 132.817 27.2423 132.836 29.161L131.752 29.1709ZM133.385 17.491C132.905 17.3479 132.404 17.2875 131.904 17.3125C128.38 17.3125 125.623 21.2466 125.596 25.1013C125.57 26.7113 126.029 28.1428 127.689 28.1428C129.672 28.1428 131.93 25.1674 132.516 21.9871L133.385 17.491Z" fill="white"/>
<path d="M135.453 29.1713L137.01 20.7675C137.292 19.3945 137.489 18.0057 137.602 16.6087H138.594C138.518 17.6004 138.415 18.2616 138.263 19.584H138.316C139.057 17.931 140.3 16.4963 141.814 16.4963C141.969 16.4963 142.144 16.4434 142.273 16.4434L142.045 17.5806C141.911 17.5507 141.773 17.5363 141.635 17.5376C140.025 17.5376 138.24 20.1097 137.728 22.7908L136.554 29.1713H135.453Z" fill="white"/>
<path d="M147.303 13.9199L146.768 16.6077H149.654L149.449 17.5994H146.563L145.211 24.8725C145.057 25.5635 144.971 26.2676 144.953 26.9751C144.953 27.6925 145.283 28.119 146.05 28.119C146.353 28.1328 146.655 28.097 146.946 28.0132L147.022 28.9058C146.633 29.0227 146.229 29.0828 145.822 29.0843C144.368 29.0843 143.806 28.1124 143.806 27.1007C143.815 26.353 143.909 25.6088 144.087 24.8825L145.465 17.6094H143.703L143.882 16.6176H145.67L146.077 14.4191L147.303 13.9199Z" fill="white"/>
<path d="M149.506 29.171L151.142 20.3606C151.423 18.906 151.575 17.6001 151.678 16.6084H152.726L152.366 19.2531H152.418C153.49 17.6001 155.023 16.4199 156.716 16.4199C157.916 16.4199 159.447 17.1472 159.447 19.4713C159.43 20.1522 159.354 20.8303 159.219 21.4979L157.814 29.171H156.716L158.131 21.4912C158.245 20.8762 158.305 20.2522 158.31 19.6267C158.31 18.3506 157.8 17.3919 156.293 17.3919C154.66 17.3919 152.326 19.5705 151.797 22.5326L150.597 29.1842L149.506 29.171Z" fill="white"/>
<path d="M168.295 28.1657C167.294 28.7942 166.132 29.117 164.95 29.0946C162.09 29.0946 161.092 26.8499 161.092 24.4994C161.092 20.9752 163.571 16.3535 167.069 16.3535C169.086 16.3535 169.929 17.6561 169.929 19.0346C169.929 22.1488 166.355 23.0018 162.345 23.0018C162.19 24.0209 162.224 25.0599 162.447 26.0664C162.88 27.445 163.826 28.1359 165.128 28.1359C166.131 28.1344 167.112 27.8514 167.962 27.3194L168.295 28.1657ZM168.824 19.0512C168.824 17.9271 168.034 17.3122 166.887 17.3122C164.996 17.3122 163.323 19.3553 162.556 22.0133C165.747 22.0364 168.838 21.5009 168.838 19.0743L168.824 19.0512Z" fill="white"/>
<path d="M170.662 29.1713L172.219 20.7675C172.5 19.3945 172.696 18.0056 172.808 16.6087H173.799C173.723 17.6004 173.621 18.2616 173.469 19.584H173.518C174.259 17.931 175.502 16.4963 177.019 16.4963C177.172 16.4963 177.35 16.4434 177.479 16.4434L177.248 17.5806C177.113 17.5505 176.975 17.536 176.838 17.5376C175.231 17.5376 173.442 20.1097 172.933 22.7908L171.756 29.1713H170.662Z" fill="white"/>
<path d="M177.106 27.4419C177.738 27.8789 178.489 28.1099 179.258 28.1031C180.864 28.1031 181.962 26.9526 181.962 25.5476C181.962 24.3244 181.453 23.5838 180.309 22.8433C179.086 22.0499 178.421 20.9523 178.421 19.8018C178.421 17.8877 179.978 16.3306 182.15 16.3306C182.86 16.3104 183.561 16.4964 184.167 16.8662L183.757 17.8117C183.234 17.4908 182.635 17.314 182.021 17.2992C180.54 17.2992 179.545 18.3472 179.545 19.6134C179.545 20.7606 180.207 21.3986 181.198 22.0895C182.372 22.8797 183.086 24.0037 183.086 25.2566C183.086 27.7328 181.274 29.0849 179.155 29.0849C178.272 29.0987 177.407 28.8401 176.676 28.3444L177.106 27.4419Z" fill="white"/>
<path d="M15.3131 14.7765H15.2404C15.103 14.7561 14.9766 14.6897 14.8818 14.5883C14.7869 14.4868 14.7292 14.3562 14.718 14.2178C14.718 13.95 14.5461 7.65221 18.2389 6.21743C18.6428 6.03447 19.0876 5.96047 19.529 6.00281C19.9703 6.04515 20.3929 6.20235 20.7547 6.45876C21.644 7.08689 22.2887 8.32662 22.6788 10.1416C22.8512 10.9452 22.9618 11.7609 23.0094 12.5814C23.0131 12.644 23.0024 12.7065 22.9782 12.7644C22.9539 12.8222 22.9168 12.8736 22.8695 12.9148C22.8223 12.956 22.7662 12.9858 22.7056 13.0019C22.645 13.0181 22.5816 13.0201 22.5201 13.0078C22.3816 12.9867 22.2543 12.9193 22.1589 12.8167C22.0634 12.7141 22.0055 12.5822 21.9944 12.4425C21.9481 11.302 21.5547 8.14479 20.2753 7.23566C20.0503 7.09212 19.792 7.00935 19.5254 6.99545C19.2589 6.98154 18.9933 7.03697 18.7546 7.15632C15.5908 8.38613 15.7396 14.3005 15.7429 14.36C15.7444 14.4162 15.7341 14.4721 15.7129 14.5242C15.6916 14.5763 15.6598 14.6234 15.6194 14.6625C15.579 14.7017 15.5309 14.732 15.4782 14.7517C15.4255 14.7713 15.3693 14.7797 15.3131 14.7765Z" fill="#A1BD52"/>
<path d="M23.2165 8.57848L8.91169 13.0018C8.64071 13.0716 8.38434 13.1892 8.15463 13.349C8.03951 13.5653 7.97507 13.8049 7.96618 14.0498L5.75781 31.0788L22.3371 34.1831L23.6132 8.56525C23.4813 8.54491 23.3468 8.54939 23.2165 8.57848Z" fill="#A1BD52"/>
<path d="M28.1498 10.7804C28.1364 10.7119 28.1016 10.6494 28.0506 10.6019C28.0036 10.5718 27.9505 10.5526 27.8952 10.5457L25.5546 10.3705L23.8322 8.658C23.7684 8.60924 23.6934 8.5774 23.614 8.56543L22.3379 34.1898L31.3235 32.2459L28.1498 10.7804Z" fill="#6F8D46"/>
<path d="M17.2984 22.8134C17.0463 22.4785 16.7568 22.1735 16.4355 21.9042C16.1364 21.6503 15.8193 21.4183 15.4867 21.21C15.2825 21.0842 15.086 20.9462 14.8983 20.7967C14.7496 20.6811 14.6133 20.5504 14.4916 20.4066C14.392 20.2896 14.3126 20.1566 14.2569 20.0132C14.2057 19.8818 14.1832 19.7409 14.1908 19.6C14.1954 19.4204 14.237 19.2437 14.3131 19.081C14.3864 18.9257 14.4924 18.7881 14.6239 18.6776C14.765 18.5602 14.9263 18.4694 15.0999 18.4098C15.3043 18.3378 15.5182 18.2966 15.7347 18.2875C15.9794 18.2729 16.2248 18.2785 16.4686 18.3041C16.8961 18.3481 17.3161 18.447 17.7182 18.5983C17.8763 18.6553 18.0308 18.7215 18.1811 18.7966L19.2886 15.4907C19.0981 15.3963 18.8988 15.321 18.6935 15.2659C18.4422 15.1947 18.1858 15.1428 17.9265 15.1105C17.6259 15.0751 17.3234 15.0575 17.0207 15.0576C16.689 15.061 16.3578 15.0842 16.0289 15.127C15.3234 15.2144 14.6373 15.4189 13.9991 15.732C13.4384 16.0097 12.9322 16.386 12.5048 16.8428C12.0951 17.2833 11.7701 17.7954 11.546 18.3536C11.3114 18.945 11.1806 19.5724 11.1592 20.2083C11.1399 20.583 11.1767 20.9585 11.2683 21.3224C11.3553 21.6568 11.4889 21.9773 11.6651 22.2745C11.8417 22.5714 12.0525 22.8466 12.2932 23.0944C12.5414 23.3506 12.81 23.5861 13.0965 23.7985C13.3076 23.9494 13.5086 24.114 13.6982 24.2911C13.8476 24.4308 13.9817 24.586 14.0982 24.754C14.1946 24.8967 14.2672 25.0541 14.3131 25.2201C14.3575 25.3803 14.3754 25.5467 14.366 25.7127C14.3612 25.8781 14.3241 26.0409 14.2569 26.1921C14.1922 26.3331 14.0961 26.4575 13.9759 26.5557C13.847 26.6595 13.6951 26.7309 13.5329 26.764C13.3385 26.801 13.1389 26.801 12.9445 26.764C12.6907 26.7255 12.4422 26.6579 12.2039 26.5623C11.9649 26.4689 11.7329 26.3584 11.5097 26.2317C11.3037 26.1168 11.104 25.991 10.9113 25.8548C10.7328 25.7292 10.5807 25.6069 10.4485 25.5011L9.69141 28.0103C9.83179 28.1862 9.99024 28.3469 10.1642 28.4897C10.3726 28.6565 10.5936 28.8068 10.8253 28.9393C11.0827 29.0877 11.35 29.218 11.6254 29.3294C11.9265 29.4503 12.2359 29.5497 12.551 29.6269H12.6172C13.267 29.7789 13.9385 29.8147 14.6007 29.7327C15.2213 29.6568 15.8156 29.4372 16.3364 29.0914C16.874 28.7254 17.3079 28.2266 17.5959 27.6434C17.9373 26.9431 18.1234 26.1774 18.1414 25.3986C18.1662 24.9048 18.1 24.4106 17.9464 23.9407C17.7911 23.5331 17.5724 23.1527 17.2984 22.8134Z" fill="white"/>
<path d="M11.8286 13.9071H11.7592C11.6279 13.8882 11.5094 13.8182 11.4295 13.7123C11.3496 13.6064 11.3148 13.4732 11.3327 13.3418C11.3724 13.074 12.3245 6.77616 16.2685 5.34138C17.2603 4.98103 18.0967 5.06038 18.7414 5.58272C19.5183 6.21085 19.9447 7.45058 20.0142 9.26885C20.0409 10.0826 20.0045 10.8972 19.9051 11.7053C19.8867 11.8369 19.8168 11.9557 19.7107 12.0356C19.6047 12.1156 19.4713 12.1502 19.3397 12.1318C19.2082 12.1134 19.0894 12.0435 19.0094 11.9375C18.9295 11.8314 18.8949 11.698 18.9133 11.5665C19.072 10.4259 19.2439 7.26875 18.1132 6.36292C17.7529 6.072 17.2603 6.03233 16.609 6.28358C13.2271 7.51008 12.3344 13.4244 12.3113 13.4839C12.2928 13.5997 12.2345 13.7054 12.1463 13.7826C12.0582 13.8599 11.9458 13.9039 11.8286 13.9071Z" fill="#A1BD52"/>
<path d="M41.7933 21.6831C40.8974 21.1971 40.4379 20.7872 40.4379 20.2251C40.4379 19.5077 41.076 19.0482 42.0909 19.0482C42.8512 19.0501 43.6022 19.2158 44.2926 19.5342L45.1125 17.025C44.5505 16.6944 43.4992 16.4365 42.1372 16.4365C39.0395 16.4365 36.9138 18.2019 36.9138 20.688C36.9138 22.093 37.9056 23.1707 39.2445 23.9377C40.3189 24.5526 40.7024 24.9857 40.7024 25.6271C40.7024 26.2684 40.1668 26.8304 39.1684 26.8304C38.157 26.8048 37.1659 26.5409 36.2757 26.0601L35.4062 28.5694C36.0674 29.0322 37.4262 29.4157 38.8874 29.4421C42.0611 29.4653 44.3389 27.8784 44.3389 25.065C44.329 23.5542 43.1752 22.4831 41.7933 21.6831Z" fill="white"/>
<path d="M54.4373 16.4096C52.8769 16.4096 51.6471 17.1535 50.7016 18.2808L50.6487 18.2543L52.0074 11.1631H48.4733L45.0352 29.2103H48.5659L49.7428 23.0414C50.2057 20.7272 51.3958 19.2792 52.533 19.2792C53.3265 19.2792 53.6339 19.8148 53.6339 20.6016C53.6341 21.1254 53.5832 21.648 53.4818 22.162L52.1595 29.2268H55.6935L57.0754 21.9306C57.2277 21.1681 57.3129 20.3937 57.33 19.6164C57.33 17.613 56.2754 16.4096 54.4373 16.4096Z" fill="white"/>
<path d="M65.3187 16.4092C61.0706 16.4092 58.2539 20.2507 58.2539 24.5253C58.2539 27.2626 59.9432 29.4644 63.117 29.4644C67.2891 29.4644 70.1057 25.7287 70.1057 21.3516C70.1057 18.8159 68.6214 16.4092 65.3187 16.4092ZM63.5765 26.7535C62.3764 26.7535 61.864 25.7287 61.864 24.4393C61.864 22.4161 62.912 19.1134 64.8393 19.1134C66.0923 19.1134 66.4923 20.1879 66.4923 21.2392C66.4956 23.4244 65.4476 26.7535 63.5765 26.7535Z" fill="white"/>
<path d="M79.1412 16.4092C77.7329 16.4092 76.351 17.1795 75.4055 18.5085H75.3526L75.5576 16.6141H72.4368C72.2814 17.8969 72.0004 19.8408 71.7194 21.2987L69.2598 34.2249H72.8071L73.779 29.0048H73.855C74.4977 29.3295 75.2116 29.4875 75.9312 29.4644C80.0768 29.4644 82.791 25.2162 82.791 20.9152C82.7778 18.5349 81.7331 16.4092 79.1412 16.4092ZM75.7626 26.8031C75.2305 26.8152 74.7121 26.6331 74.3047 26.2907L74.8931 22.9847C75.303 20.7829 76.4535 19.325 77.6833 19.325C78.7578 19.325 79.0917 20.3168 79.0917 21.2722C79.0884 23.5533 77.7329 26.8031 75.7626 26.8031Z" fill="white"/>
<path d="M87.8184 11.3415C87.5502 11.3406 87.2846 11.3932 87.037 11.4962C86.7893 11.5992 86.5648 11.7506 86.3764 11.9415C86.188 12.1323 86.0395 12.3589 85.9397 12.6078C85.8399 12.8567 85.7908 13.1231 85.7952 13.3912C85.7952 14.4392 86.4564 15.1566 87.4482 15.1566H87.4978C87.771 15.169 88.0439 15.1248 88.2993 15.0268C88.5547 14.9287 88.787 14.7788 88.9816 14.5867C89.1763 14.3945 89.3291 14.1641 89.4305 13.91C89.5318 13.6559 89.5795 13.3836 89.5706 13.1102C89.5833 12.876 89.5468 12.6418 89.4635 12.4225C89.3801 12.2033 89.2518 12.0039 89.0867 11.8373C88.9217 11.6707 88.7235 11.5405 88.5051 11.4551C88.2866 11.3697 88.0527 11.331 87.8184 11.3415Z" fill="white"/>
<path d="M82.8809 29.2097H86.4116L88.8184 16.6934H85.2611L82.8809 29.2097Z" fill="white"/>
<path d="M97.8039 16.6682H95.3443L95.4733 16.0797C95.6782 14.8764 96.3956 13.8019 97.5725 13.8019C97.9556 13.7988 98.3365 13.8592 98.6999 13.9805L99.3908 11.2167C98.7772 10.9884 98.1242 10.885 97.47 10.9126C96.2146 10.8779 94.9885 11.2956 94.0153 12.0895C92.812 13.1143 92.25 14.5987 91.9656 16.0831L91.8632 16.6715H90.2267L89.7143 19.3163H91.3673L89.4961 29.1978H93.0302L94.898 19.3163H97.3312L97.8039 16.6682Z" fill="white"/>
<path d="M106.3 16.6934L104.151 22.3135C103.638 23.6722 103.384 24.4656 103.1 25.3087H103.05C102.997 24.4888 102.898 23.5929 102.742 22.3333L102.18 16.7132H98.4679L100.594 28.2047C100.621 28.303 100.628 28.4059 100.614 28.507C100.601 28.6082 100.567 28.7055 100.514 28.7931C100.056 29.6461 99.3982 30.3755 98.5968 30.9189C97.987 31.3434 97.3188 31.6775 96.6133 31.9106L97.5852 34.9058C98.878 34.5614 100.065 33.9014 101.04 32.9851C102.653 31.4743 104.138 29.1469 105.668 25.9732L109.992 16.7165L106.3 16.6934Z" fill="white"/>
</svg>
