<svg width="55" height="61" viewBox="0 0 55 61" fill="none" xmlns="http://www.w3.org/2000/svg">
<path d="M23.5314 19.5524L23.3885 19.5524C23.1185 19.5122 22.8701 19.3817 22.6836 19.1823C22.4972 18.9829 22.3838 18.7263 22.3618 18.4542C22.3618 17.9279 22.0239 5.54979 29.2819 2.72978C30.0758 2.37017 30.95 2.22474 31.8175 2.30796C32.685 2.39118 33.5156 2.70014 34.2266 3.20411C35.9745 4.43867 37.2416 6.87532 38.0083 10.4426C38.3473 12.022 38.5645 13.6252 38.6581 15.2379C38.6654 15.3609 38.6445 15.4839 38.5968 15.5975C38.5492 15.7111 38.4761 15.8123 38.3832 15.8933C38.2903 15.9742 38.1801 16.0328 38.0611 16.0645C37.942 16.0962 37.8173 16.1001 37.6964 16.0761C37.4242 16.0345 37.174 15.9021 36.9864 15.7004C36.7989 15.4987 36.685 15.2395 36.6633 14.965C36.5723 12.7233 35.7991 6.51794 33.2845 4.73107C32.8422 4.44894 32.3344 4.28628 31.8106 4.25895C31.2867 4.23161 30.7647 4.34055 30.2955 4.57513C24.0772 6.99228 24.3696 18.6167 24.3761 18.7336C24.379 18.8442 24.3589 18.9541 24.3171 19.0564C24.2754 19.1588 24.2128 19.2514 24.1334 19.3283C24.054 19.4053 23.9595 19.4649 23.8559 19.5035C23.7523 19.542 23.6418 19.5587 23.5314 19.5524Z" fill="#202020"/>
<path d="M48.7628 11.6982C48.7365 11.5636 48.6683 11.4408 48.5679 11.3473C48.4756 11.2882 48.3713 11.2504 48.2625 11.2369L43.6621 10.8925L40.2768 7.52666C40.1515 7.43083 40.004 7.36825 39.848 7.34473L37.3398 57.7085L55.0006 53.8878L48.7628 11.6982Z" fill="#202020"/>
<path fill-rule="evenodd" clip-rule="evenodd" d="M10.9545 16.0645L39.0701 7.37056C39.3261 7.31339 39.5906 7.30458 39.8498 7.34457L37.3417 57.6953L4.75566 51.594L9.09613 18.1243C9.11359 17.643 9.24024 17.1719 9.46651 16.7468C9.918 16.4327 10.4219 16.2017 10.9545 16.0645ZM25.743 33.5631C26.3744 34.0922 26.9434 34.6918 27.4389 35.35C27.9775 36.0168 28.4073 36.7646 28.7124 37.5657C29.0145 38.4893 29.1444 39.4606 29.0958 40.4312C29.0603 41.9619 28.6946 43.4669 28.0237 44.8431C27.4576 45.9894 26.6048 46.9698 25.548 47.6891C24.5244 48.3689 23.3564 48.8005 22.1367 48.9497C20.8351 49.1107 19.5152 49.0404 18.2381 48.7418L18.1081 48.7418C17.4887 48.59 16.8807 48.3946 16.2888 48.157C15.7475 47.9381 15.2221 47.6819 14.7163 47.3902C14.2609 47.1298 13.8264 46.8344 13.4168 46.5065C13.075 46.2259 12.7635 45.9101 12.4876 45.5644L13.9756 40.6326L14.0035 40.6549C14.2568 40.8576 14.5469 41.0897 14.8853 41.3279C15.264 41.5954 15.6565 41.8426 16.0614 42.0686C16.5 42.3177 16.956 42.5348 17.4259 42.7184C17.8942 42.9062 18.3826 43.0392 18.8814 43.1147C19.2635 43.1875 19.6559 43.1875 20.038 43.1147C20.3567 43.0496 20.6552 42.9093 20.9087 42.7054C21.1448 42.5123 21.3337 42.2679 21.461 41.9906C21.593 41.6935 21.6658 41.3735 21.6754 41.0485C21.6938 40.7222 21.6587 40.3952 21.5714 40.0803C21.4811 39.7541 21.3385 39.4447 21.1491 39.1641C20.92 38.8339 20.6564 38.529 20.3629 38.2545C19.9902 37.9063 19.5952 37.5829 19.1803 37.2863C18.6172 36.8687 18.0891 36.4058 17.6013 35.9023C17.1283 35.4152 16.7139 34.8744 16.3668 34.2908C16.0204 33.7067 15.758 33.0767 15.587 32.4195C15.4069 31.7044 15.3346 30.9663 15.3726 30.2298C15.4145 28.98 15.6717 27.7469 16.1329 26.5846C16.5732 25.4874 17.212 24.4808 18.0172 23.6151C18.8573 22.7171 19.8522 21.9776 20.9541 21.4319C22.2086 20.8163 23.557 20.4145 24.9438 20.2428C25.5902 20.1586 26.2412 20.113 26.8931 20.1063C27.488 20.1061 28.0825 20.1408 28.6734 20.2103C29.1829 20.2737 29.6869 20.3758 30.1809 20.5157C30.5844 20.6239 30.9762 20.7719 31.3505 20.9575L29.1738 27.4552C28.8784 27.3076 28.5747 27.1774 28.2641 27.0654C27.4736 26.768 26.6481 26.5736 25.8079 26.4871C25.3288 26.4368 24.8464 26.4259 24.3654 26.4546C23.94 26.4724 23.5195 26.5535 23.1179 26.695C22.7766 26.8122 22.4595 26.9905 22.1822 27.2213C21.9238 27.4384 21.7155 27.7088 21.5714 28.0141C21.4218 28.3339 21.34 28.6812 21.331 29.0342C21.3161 29.3111 21.3604 29.588 21.461 29.8464C21.5704 30.1281 21.7264 30.3895 21.9223 30.6196C22.1615 30.9022 22.4293 31.1591 22.7215 31.3864C23.0904 31.6801 23.4766 31.9513 23.8781 32.1986C24.5318 32.608 25.155 33.064 25.743 33.5631Z" fill="#202020"/>
<path d="M16.6849 17.8457L16.5484 17.8457C16.2904 17.8086 16.0574 17.671 15.9004 17.4628C15.7434 17.2547 15.675 16.9929 15.7102 16.7345C15.7882 16.2082 17.6596 3.83009 25.4113 1.01008C27.3607 0.301834 29.0046 0.457776 30.2716 1.48442C31.7986 2.71898 32.6368 5.15562 32.7732 8.72937C32.8258 10.3288 32.7542 11.9299 32.5588 13.5182C32.5226 13.7767 32.3852 14.0102 32.1769 14.1674C31.9685 14.3246 31.7062 14.3926 31.4477 14.3564C31.1892 14.3202 30.9557 14.1828 30.7985 13.9744C30.6413 13.7661 30.5733 13.5038 30.6095 13.2453C30.9214 11.0036 31.2593 4.79825 29.0371 3.01788C28.3288 2.44608 27.3607 2.36811 26.0806 2.86193C19.4334 5.27258 17.6791 16.897 17.6336 17.014C17.5973 17.2415 17.4826 17.4491 17.3093 17.601C17.1361 17.7529 16.9152 17.8394 16.6849 17.8457Z" fill="#202020"/>
</svg>
