<svg width="190" height="41" viewBox="0 0 190 41" fill="none" xmlns="http://www.w3.org/2000/svg">
<path d="M112.111 34.6297L114.564 21.4489C114.868 19.8422 115.1 18.4306 115.252 17.1082H116.3L115.916 19.753H115.969C117.067 18.1 118.614 16.9297 120.234 16.9297C122.548 16.9297 123.424 18.8537 123.424 20.8704C123.424 25.0094 120.591 29.7667 116.683 29.7667C115.483 29.7667 114.7 29.3402 114.23 29.3402H114.181L113.209 34.6297H112.111ZM114.425 27.9517C115.121 28.4355 115.956 28.6782 116.802 28.6427C120.046 28.6427 122.294 24.0441 122.294 20.9034C122.294 19.4488 121.732 17.8124 119.917 17.8124C118.181 17.8124 115.907 20.034 115.219 23.7366L114.425 27.9517Z" fill="#202020"/>
<path d="M131.752 29.6709C131.766 28.5627 131.868 27.4572 132.056 26.365H132.006C130.601 29.0097 129.031 29.7635 127.434 29.7635C125.57 29.7635 124.459 28.1535 124.459 25.9584C124.459 21.7697 127.434 16.8802 132.198 16.8802C133.036 16.8602 133.871 16.9717 134.674 17.2108L133.372 23.945C132.996 25.8267 132.817 27.7423 132.836 29.661L131.752 29.6709ZM133.385 17.991C132.905 17.8479 132.404 17.7875 131.904 17.8125C128.38 17.8125 125.623 21.7466 125.596 25.6013C125.57 27.2113 126.029 28.6428 127.689 28.6428C129.672 28.6428 131.93 25.6674 132.516 22.4871L133.385 17.991Z" fill="#202020"/>
<path d="M135.453 29.6708L137.01 21.2671C137.292 19.894 137.489 18.5052 137.602 17.1082H138.594C138.518 18.1 138.415 18.7611 138.263 20.0835H138.316C139.057 18.4305 140.3 16.9958 141.814 16.9958C141.969 16.9958 142.144 16.9429 142.273 16.9429L142.045 18.0801C141.911 18.0502 141.773 18.0358 141.635 18.0371C140.025 18.0371 138.24 20.6092 137.728 23.2903L136.554 29.6708H135.453Z" fill="#202020"/>
<path d="M147.303 14.4199L146.768 17.1077H149.654L149.449 18.0994H146.563L145.211 25.3725C145.057 26.0635 144.971 26.7676 144.953 27.4751C144.953 28.1925 145.283 28.619 146.05 28.619C146.353 28.6328 146.655 28.597 146.946 28.5132L147.022 29.4058C146.633 29.5227 146.229 29.5828 145.822 29.5843C144.368 29.5843 143.806 28.6124 143.806 27.6007C143.815 26.853 143.909 26.1088 144.087 25.3825L145.465 18.1094H143.703L143.882 17.1176H145.67L146.077 14.9191L147.303 14.4199Z" fill="#202020"/>
<path d="M149.506 29.671L151.142 20.8606C151.423 19.406 151.575 18.1001 151.678 17.1084H152.726L152.366 19.7531H152.418C153.49 18.1001 155.023 16.9199 156.716 16.9199C157.916 16.9199 159.447 17.6472 159.447 19.9713C159.43 20.6522 159.354 21.3303 159.219 21.9979L157.814 29.671H156.716L158.131 21.9912C158.245 21.3762 158.305 20.7522 158.31 20.1267C158.31 18.8506 157.8 17.8919 156.293 17.8919C154.66 17.8919 152.326 20.0705 151.797 23.0326L150.597 29.6842L149.506 29.671Z" fill="#202020"/>
<path d="M168.295 28.6657C167.294 29.2942 166.132 29.617 164.95 29.5946C162.09 29.5946 161.092 27.3499 161.092 24.9994C161.092 21.4752 163.571 16.8535 167.069 16.8535C169.086 16.8535 169.929 18.1561 169.929 19.5346C169.929 22.6488 166.355 23.5018 162.345 23.5018C162.19 24.5209 162.224 25.5599 162.447 26.5664C162.88 27.945 163.826 28.6359 165.128 28.6359C166.131 28.6344 167.112 28.3514 167.962 27.8194L168.295 28.6657ZM168.824 19.5512C168.824 18.4271 168.034 17.8122 166.887 17.8122C164.996 17.8122 163.323 19.8553 162.556 22.5133C165.747 22.5364 168.838 22.0009 168.838 19.5743L168.824 19.5512Z" fill="#202020"/>
<path d="M170.662 29.6708L172.219 21.2671C172.5 19.894 172.696 18.5051 172.808 17.1082H173.799C173.723 18.1 173.621 18.7611 173.469 20.0835H173.518C174.259 18.4305 175.502 16.9958 177.019 16.9958C177.172 16.9958 177.35 16.9429 177.479 16.9429L177.248 18.0801C177.113 18.05 176.975 18.0356 176.838 18.0371C175.231 18.0371 173.442 20.6092 172.933 23.2903L171.756 29.6708H170.662Z" fill="#202020"/>
<path d="M177.106 27.9419C177.738 28.3789 178.489 28.6099 179.258 28.6031C180.864 28.6031 181.962 27.4526 181.962 26.0476C181.962 24.8244 181.453 24.0838 180.309 23.3433C179.086 22.5499 178.421 21.4523 178.421 20.3018C178.421 18.3877 179.978 16.8306 182.15 16.8306C182.86 16.8104 183.561 16.9964 184.167 17.3662L183.757 18.3117C183.234 17.9908 182.635 17.814 182.021 17.7992C180.54 17.7992 179.545 18.8472 179.545 20.1134C179.545 21.2606 180.207 21.8986 181.198 22.5895C182.372 23.3797 183.086 24.5037 183.086 25.7566C183.086 28.2328 181.274 29.5849 179.155 29.5849C178.272 29.5987 177.407 29.3401 176.676 28.8444L177.106 27.9419Z" fill="#202020"/>
<path d="M15.3131 15.2765H15.2404C15.103 15.2561 14.9766 15.1897 14.8818 15.0883C14.7869 14.9868 14.7292 14.8562 14.718 14.7178C14.718 14.45 14.5461 8.15221 18.2389 6.71743C18.6428 6.53447 19.0876 6.46047 19.529 6.50281C19.9703 6.54515 20.3929 6.70235 20.7547 6.95876C21.644 7.58689 22.2887 8.82662 22.6788 10.6416C22.8512 11.4452 22.9618 12.2609 23.0094 13.0814C23.0131 13.144 23.0024 13.2065 22.9782 13.2644C22.9539 13.3222 22.9168 13.3736 22.8695 13.4148C22.8223 13.456 22.7662 13.4858 22.7056 13.5019C22.645 13.5181 22.5816 13.5201 22.5201 13.5078C22.3816 13.4867 22.2543 13.4193 22.1589 13.3167C22.0634 13.2141 22.0055 13.0822 21.9944 12.9425C21.9481 11.802 21.5547 8.64479 20.2753 7.73566C20.0503 7.59212 19.792 7.50935 19.5254 7.49545C19.2589 7.48154 18.9933 7.53697 18.7546 7.65632C15.5908 8.88613 15.7396 14.8005 15.7429 14.86C15.7444 14.9162 15.7341 14.9721 15.7129 15.0242C15.6916 15.0763 15.6598 15.1234 15.6194 15.1625C15.579 15.2017 15.5309 15.232 15.4782 15.2517C15.4255 15.2713 15.3693 15.2797 15.3131 15.2765Z" fill="#A1BD52"/>
<path d="M23.2165 9.07799L8.91169 13.5013C8.64071 13.5711 8.38434 13.6887 8.15463 13.8485C8.03951 14.0648 7.97507 14.3045 7.96618 14.5493L5.75781 31.5783L22.3371 34.6826L23.6132 9.06477C23.4813 9.04442 23.3468 9.0489 23.2165 9.07799Z" fill="#A1BD52"/>
<path d="M28.1498 11.2804C28.1364 11.2119 28.1016 11.1494 28.0506 11.1019C28.0036 11.0718 27.9505 11.0526 27.8952 11.0457L25.5546 10.8705L23.8322 9.158C23.7684 9.10924 23.6934 9.0774 23.614 9.06543L22.3379 34.6898L31.3235 32.7459L28.1498 11.2804Z" fill="#6F8D46"/>
<path d="M17.2984 23.3134C17.0463 22.9785 16.7568 22.6735 16.4355 22.4042C16.1364 22.1503 15.8193 21.9183 15.4867 21.71C15.2825 21.5842 15.086 21.4462 14.8983 21.2967C14.7496 21.1811 14.6133 21.0504 14.4916 20.9066C14.392 20.7896 14.3126 20.6566 14.2569 20.5132C14.2057 20.3818 14.1832 20.2409 14.1908 20.1C14.1954 19.9204 14.237 19.7437 14.3131 19.581C14.3864 19.4257 14.4924 19.2881 14.6239 19.1776C14.765 19.0602 14.9263 18.9694 15.0999 18.9098C15.3043 18.8378 15.5182 18.7966 15.7347 18.7875C15.9794 18.7729 16.2248 18.7785 16.4686 18.8041C16.8961 18.8481 17.3161 18.947 17.7182 19.0983C17.8763 19.1553 18.0308 19.2215 18.1811 19.2966L19.2886 15.9907C19.0981 15.8963 18.8988 15.821 18.6935 15.7659C18.4422 15.6947 18.1858 15.6428 17.9265 15.6105C17.6259 15.5751 17.3234 15.5575 17.0207 15.5576C16.689 15.561 16.3578 15.5842 16.0289 15.627C15.3234 15.7144 14.6373 15.9189 13.9991 16.232C13.4384 16.5097 12.9322 16.886 12.5048 17.3428C12.0951 17.7833 11.7701 18.2954 11.546 18.8536C11.3114 19.445 11.1806 20.0724 11.1592 20.7083C11.1399 21.083 11.1767 21.4585 11.2683 21.8224C11.3553 22.1568 11.4889 22.4773 11.6651 22.7745C11.8417 23.0714 12.0525 23.3466 12.2932 23.5944C12.5414 23.8506 12.81 24.0861 13.0965 24.2985C13.3076 24.4494 13.5086 24.614 13.6982 24.7911C13.8476 24.9308 13.9817 25.086 14.0982 25.254C14.1946 25.3967 14.2672 25.5541 14.3131 25.7201C14.3575 25.8803 14.3754 26.0467 14.366 26.2127C14.3612 26.3781 14.3241 26.5409 14.2569 26.6921C14.1922 26.8331 14.0961 26.9575 13.9759 27.0557C13.847 27.1595 13.6951 27.2309 13.5329 27.264C13.3385 27.301 13.1389 27.301 12.9445 27.264C12.6907 27.2255 12.4422 27.1579 12.2039 27.0623C11.9649 26.9689 11.7329 26.8584 11.5097 26.7317C11.3037 26.6168 11.104 26.491 10.9113 26.3548C10.7328 26.2292 10.5807 26.1069 10.4485 26.0011L9.69141 28.5103C9.83179 28.6862 9.99024 28.8469 10.1642 28.9897C10.3726 29.1565 10.5936 29.3068 10.8253 29.4393C11.0827 29.5877 11.35 29.718 11.6254 29.8294C11.9265 29.9503 12.2359 30.0497 12.551 30.1269H12.6172C13.267 30.2789 13.9385 30.3147 14.6007 30.2327C15.2213 30.1568 15.8156 29.9372 16.3364 29.5914C16.874 29.2254 17.3079 28.7266 17.5959 28.1434C17.9373 27.4431 18.1234 26.6774 18.1414 25.8986C18.1662 25.4048 18.1 24.9106 17.9464 24.4407C17.7911 24.0331 17.5724 23.6527 17.2984 23.3134Z" fill="white"/>
<path d="M11.8286 14.4076H11.7592C11.6279 14.3887 11.5094 14.3187 11.4295 14.2128C11.3496 14.1069 11.3148 13.9737 11.3327 13.8423C11.3724 13.5745 12.3245 7.27665 16.2685 5.84187C17.2603 5.48152 18.0967 5.56086 18.7414 6.0832C19.5183 6.71133 19.9447 7.95107 20.0142 9.76934C20.0409 10.5831 20.0045 11.3977 19.9051 12.2058C19.8867 12.3373 19.8168 12.4562 19.7107 12.5361C19.6047 12.6161 19.4713 12.6507 19.3397 12.6323C19.2082 12.6139 19.0894 12.544 19.0094 12.438C18.9295 12.3319 18.8949 12.1985 18.9133 12.067C19.072 10.9264 19.2439 7.76924 18.1132 6.86341C17.7529 6.57248 17.2603 6.53281 16.609 6.78407C13.2271 8.01057 12.3344 13.9249 12.3113 13.9844C12.2928 14.1002 12.2345 14.2058 12.1463 14.2831C12.0582 14.3604 11.9458 14.4044 11.8286 14.4076Z" fill="#A1BD52"/>
<path d="M41.7933 22.1831C40.8974 21.6971 40.4379 21.2872 40.4379 20.7251C40.4379 20.0077 41.076 19.5482 42.0909 19.5482C42.8512 19.5501 43.6022 19.7158 44.2926 20.0342L45.1125 17.525C44.5505 17.1944 43.4992 16.9365 42.1372 16.9365C39.0395 16.9365 36.9138 18.7019 36.9138 21.188C36.9138 22.593 37.9056 23.6707 39.2445 24.4377C40.3189 25.0526 40.7024 25.4857 40.7024 26.1271C40.7024 26.7684 40.1668 27.3304 39.1684 27.3304C38.157 27.3048 37.1659 27.0409 36.2757 26.5601L35.4062 29.0694C36.0674 29.5322 37.4262 29.9157 38.8874 29.9421C42.0611 29.9653 44.3389 28.3784 44.3389 25.565C44.329 24.0542 43.1752 22.9831 41.7933 22.1831Z" fill="#202020"/>
<path d="M54.4373 16.9096C52.8769 16.9096 51.6471 17.6535 50.7016 18.7808L50.6487 18.7543L52.0074 11.6631H48.4733L45.0352 29.7103H48.5659L49.7428 23.5414C50.2057 21.2272 51.3958 19.7792 52.533 19.7792C53.3265 19.7792 53.6339 20.3148 53.6339 21.1016C53.6341 21.6254 53.5832 22.148 53.4818 22.662L52.1595 29.7268H55.6935L57.0754 22.4306C57.2277 21.6681 57.3129 20.8937 57.33 20.1164C57.33 18.113 56.2754 16.9096 54.4373 16.9096Z" fill="#202020"/>
<path d="M65.3187 16.9097C61.0706 16.9097 58.2539 20.7512 58.2539 25.0258C58.2539 27.7631 59.9432 29.9649 63.117 29.9649C67.2891 29.9649 70.1057 26.2291 70.1057 21.8521C70.1057 19.3164 68.6214 16.9097 65.3187 16.9097ZM63.5765 27.254C62.3764 27.254 61.864 26.2291 61.864 24.9398C61.864 22.9166 62.912 19.6139 64.8393 19.6139C66.0923 19.6139 66.4923 20.6884 66.4923 21.7397C66.4956 23.9249 65.4476 27.254 63.5765 27.254Z" fill="#202020"/>
<path d="M79.1412 16.9097C77.7329 16.9097 76.351 17.68 75.4055 19.0089H75.3526L75.5576 17.1146H72.4368C72.2814 18.3973 72.0004 20.3412 71.7194 21.7992L69.2598 34.7254H72.8071L73.779 29.5053H73.855C74.4977 29.83 75.2116 29.988 75.9312 29.9649C80.0768 29.9649 82.791 25.7167 82.791 21.4157C82.7778 19.0354 81.7331 16.9097 79.1412 16.9097ZM75.7626 27.3036C75.2305 27.3157 74.7121 27.1336 74.3047 26.7912L74.8931 23.4852C75.303 21.2834 76.4535 19.8255 77.6833 19.8255C78.7578 19.8255 79.0917 20.8173 79.0917 21.7727C79.0884 24.0538 77.7329 27.3036 75.7626 27.3036Z" fill="#202020"/>
<path d="M87.8184 11.842C87.5502 11.8411 87.2846 11.8937 87.037 11.9967C86.7893 12.0997 86.5648 12.2511 86.3764 12.442C86.188 12.6328 86.0395 12.8593 85.9397 13.1083C85.8399 13.3572 85.7908 13.6236 85.7952 13.8917C85.7952 14.9397 86.4564 15.6571 87.4482 15.6571H87.4978C87.771 15.6695 88.0439 15.6253 88.2993 15.5273C88.5547 15.4292 88.787 15.2793 88.9816 15.0871C89.1763 14.895 89.3291 14.6646 89.4305 14.4105C89.5318 14.1564 89.5795 13.8841 89.5706 13.6107C89.5833 13.3765 89.5468 13.1422 89.4635 12.923C89.3801 12.7038 89.2518 12.5044 89.0867 12.3378C88.9217 12.1712 88.7235 12.041 88.5051 11.9556C88.2866 11.8702 88.0527 11.8315 87.8184 11.842Z" fill="#202020"/>
<path d="M82.8809 29.7097H86.4116L88.8184 17.1934H85.2611L82.8809 29.7097Z" fill="#202020"/>
<path d="M97.8039 17.1682H95.3443L95.4733 16.5797C95.6782 15.3764 96.3956 14.3019 97.5725 14.3019C97.9556 14.2988 98.3365 14.3592 98.6999 14.4805L99.3908 11.7167C98.7772 11.4884 98.1242 11.385 97.47 11.4126C96.2146 11.3779 94.9885 11.7956 94.0153 12.5895C92.812 13.6143 92.25 15.0987 91.9656 16.5831L91.8632 17.1715H90.2267L89.7143 19.8163H91.3673L89.4961 29.6978H93.0302L94.898 19.8163H97.3312L97.8039 17.1682Z" fill="#202020"/>
<path d="M106.3 17.1934L104.151 22.8135C103.638 24.1722 103.384 24.9656 103.1 25.8087H103.05C102.997 24.9888 102.898 24.0929 102.742 22.8333L102.18 17.2132H98.4679L100.594 28.7047C100.621 28.803 100.628 28.9059 100.614 29.007C100.601 29.1082 100.567 29.2055 100.514 29.2931C100.056 30.1461 99.3982 30.8755 98.5968 31.4189C97.987 31.8434 97.3188 32.1775 96.6133 32.4106L97.5852 35.4058C98.878 35.0614 100.065 34.4014 101.04 33.4851C102.653 31.9743 104.138 29.6469 105.668 26.4732L109.992 17.2165L106.3 17.1934Z" fill="#202020"/>
</svg>
