<svg width="260" height="260" viewBox="0 0 260 260" fill="none" xmlns="http://www.w3.org/2000/svg">
<path d="M124.07 5.66019L126.211 3.61691L126.556 3.97858L128.964 1.67989C129.164 1.4896 129.401 1.36531 129.651 1.30583L129.535 0.819424C129.841 0.746742 130.16 0.746742 130.465 0.819424L130.349 1.30583C130.599 1.36531 130.836 1.4896 131.036 1.67989L133.444 3.97858L133.789 3.61691L135.93 5.66019L135.584 6.02186L137.993 8.32055C138.287 8.60165 138.636 8.7988 139.007 8.90877L139.149 8.42943C139.419 8.50945 139.703 8.5318 139.982 8.49496L140.047 8.99065C140.43 8.94002 140.806 8.7999 141.141 8.56833L143.879 6.67465L143.594 6.26342L146.028 4.58015L146.313 4.99138L149.051 3.09769C149.277 2.94093 149.531 2.85533 149.787 2.83567L149.749 2.33713C150.062 2.31311 150.377 2.36301 150.667 2.48256L150.477 2.94487C150.714 3.04269 150.93 3.20261 151.097 3.42174L153.116 6.06885L153.513 5.76563L155.308 8.11861L154.91 8.42183L156.929 11.0689C157.176 11.3926 157.49 11.642 157.839 11.8086L158.054 11.3574C158.308 11.4786 158.585 11.5451 158.866 11.5523L158.853 12.0522C159.24 12.0621 159.633 11.9825 160 11.8062L163 10.3641L162.784 9.91346L165.451 8.63165L165.667 9.08231L168.668 7.64027C168.916 7.52089 169.181 7.47608 169.437 7.49672L169.477 6.99834C169.79 7.02356 170.093 7.12214 170.361 7.28561L170.101 7.71243C170.32 7.8462 170.507 8.0378 170.638 8.28038L172.218 11.2107L172.658 10.9734L174.063 13.5782L173.622 13.8155L175.202 16.7458C175.396 17.1041 175.667 17.3995 175.985 17.6186L176.268 17.2067C176.5 17.3661 176.764 17.4752 177.04 17.5263L176.949 18.018C177.329 18.0883 177.73 18.0711 178.12 17.9543L181.309 16.9994L181.166 16.5204L184.001 15.6716L184.144 16.1506L187.333 15.1957C187.597 15.1167 187.865 15.1138 188.115 15.1742L188.233 14.6882C188.538 14.7621 188.822 14.9069 189.061 15.1103L188.737 15.4911C188.933 15.6575 189.088 15.8761 189.179 16.1361L189.651 15.9706L189.179 16.1362L190.281 19.2776L190.753 19.112L191.732 21.9044L191.261 22.0699L192.363 25.2113C192.497 25.5955 192.719 25.9296 192.999 26.1959L193.344 25.8333C193.548 26.0271 193.791 26.176 194.056 26.2698L193.889 26.7412C194.254 26.8701 194.652 26.9157 195.055 26.8614L198.355 26.4172L198.288 25.9216L201.221 25.5268L201.287 26.0223L204.587 25.5781C204.86 25.5413 205.125 25.5804 205.362 25.6791L205.554 25.2175C205.844 25.3382 206.102 25.5257 206.306 25.7639L205.927 26.0894C206.094 26.2844 206.213 26.5245 206.263 26.7956L206.86 30.0708L207.352 29.9811L207.882 32.8923L207.39 32.982L207.987 36.2571C208.06 36.6576 208.227 37.0223 208.462 37.3291L208.859 37.0249C209.03 37.2482 209.247 37.4333 209.494 37.5674L209.256 38.0069C209.596 38.1912 209.982 38.2986 210.389 38.3081L213.717 38.3855L213.729 37.8856L216.687 37.9544L216.675 38.4542L220.004 38.5316C220.279 38.538 220.535 38.6181 220.754 38.7527L221.016 38.3269C221.283 38.4914 221.509 38.7169 221.673 38.9842L221.247 39.2463C221.382 39.465 221.462 39.7208 221.468 39.9963L221.546 43.3246L222.046 43.3129L222.114 46.2714L221.615 46.283L221.692 49.6112C221.701 50.0182 221.809 50.4044 221.993 50.7443L222.433 50.5059C222.567 50.7532 222.752 50.9698 222.975 51.141L222.671 51.5378C222.978 51.773 223.342 51.9395 223.743 52.0126L227.018 52.6096L227.108 52.1177L230.019 52.6485L229.929 53.1403L233.204 53.7374C233.476 53.7868 233.716 53.9059 233.911 54.0731L234.236 53.6935C234.474 53.8978 234.662 54.1559 234.783 54.4456L234.321 54.6378C234.42 54.8749 234.459 55.1401 234.422 55.4133L233.978 58.7126L234.473 58.7793L234.078 61.7121L233.583 61.6453L233.139 64.9447C233.084 65.3482 233.13 65.7464 233.259 66.1109L233.73 65.9442C233.824 66.2095 233.973 66.4524 234.167 66.6564L233.804 67.0007C234.07 67.2811 234.405 67.5026 234.789 67.6373L237.93 68.7394L238.096 68.2676L240.888 69.2472L240.722 69.719L243.864 70.8211C244.124 70.9123 244.342 71.0675 244.509 71.2631L244.89 70.9391C245.093 71.1781 245.238 71.4624 245.312 71.7674L244.826 71.8851C244.886 72.1347 244.883 72.4027 244.804 72.6667L243.849 75.856L244.328 75.9994L243.48 78.8342L243.001 78.6908L242.046 81.8801C241.929 82.2701 241.912 82.6706 241.982 83.0507L242.474 82.9598C242.525 83.2365 242.634 83.4997 242.793 83.7315L242.381 84.0149C242.601 84.3334 242.896 84.6045 243.254 84.7977L246.185 86.3776L246.422 85.9375L249.027 87.3419L248.789 87.782L251.72 89.3619C251.962 89.4927 252.154 89.6802 252.288 89.8994L252.714 89.6389C252.878 89.9069 252.976 90.2103 253.002 90.5231L252.503 90.5633C252.524 90.8193 252.479 91.0836 252.36 91.3319L250.918 94.3325L251.368 94.5491L250.087 97.2163L249.636 96.9997L248.194 100C248.018 100.367 247.938 100.76 247.948 101.147L248.448 101.134C248.455 101.415 248.521 101.692 248.643 101.946L248.191 102.161C248.358 102.51 248.607 102.824 248.931 103.071L251.578 105.09L251.881 104.692L254.234 106.487L253.931 106.884L256.578 108.903C256.797 109.07 256.957 109.286 257.055 109.523L257.517 109.333C257.637 109.623 257.687 109.938 257.663 110.251L257.164 110.213C257.145 110.469 257.059 110.723 256.902 110.949L255.009 113.687L255.42 113.972L253.737 116.406L253.325 116.121L251.432 118.859C251.2 119.194 251.06 119.57 251.009 119.953L251.505 120.018C251.468 120.297 251.491 120.581 251.571 120.851L251.091 120.993C251.201 121.364 251.398 121.713 251.679 122.008L253.978 124.416L254.34 124.07L256.383 126.211L256.021 126.556L258.32 128.964C258.51 129.164 258.635 129.401 258.694 129.651L259.181 129.535C259.253 129.841 259.253 130.16 259.181 130.465L258.694 130.349C258.635 130.599 258.51 130.836 258.32 131.036L256.021 133.444L256.383 133.789L254.34 135.93L253.978 135.584L251.679 137.992C251.398 138.287 251.201 138.636 251.091 139.007L251.571 139.149C251.491 139.419 251.468 139.703 251.505 139.982L251.009 140.047C251.06 140.43 251.2 140.806 251.432 141.141L253.325 143.879L253.737 143.594L255.42 146.028L255.009 146.313L256.902 149.051C257.059 149.277 257.145 149.531 257.164 149.787L257.663 149.749C257.687 150.062 257.637 150.377 257.517 150.667L257.055 150.477C256.957 150.714 256.797 150.93 256.578 151.097L253.931 153.116L254.234 153.513L251.881 155.308L251.578 154.91L248.931 156.929C248.607 157.176 248.358 157.49 248.191 157.839L248.643 158.054C248.521 158.308 248.455 158.585 248.448 158.866L247.948 158.853C247.938 159.24 248.018 159.633 248.194 160L249.636 163L250.087 162.784L251.368 165.451L250.918 165.667L252.36 168.668C252.479 168.916 252.524 169.181 252.503 169.437L253.002 169.477C252.976 169.79 252.878 170.093 252.714 170.361L252.288 170.101C252.154 170.32 251.962 170.507 251.72 170.638L248.789 172.218L249.027 172.658L246.422 174.063L246.185 173.622L243.254 175.202C242.896 175.396 242.601 175.667 242.381 175.985L242.793 176.268C242.634 176.5 242.525 176.764 242.474 177.04L241.982 176.949C241.912 177.329 241.929 177.73 242.046 178.12L243.001 181.309L243.48 181.166L244.328 184.001L243.849 184.144L244.804 187.333C244.883 187.597 244.886 187.865 244.826 188.115L245.312 188.233C245.238 188.538 245.093 188.822 244.89 189.061L244.509 188.737C244.342 188.933 244.124 189.088 243.864 189.179L240.722 190.281L240.888 190.753L238.096 191.732L237.93 191.261L234.789 192.363C234.405 192.497 234.07 192.719 233.804 192.999L234.167 193.344C233.973 193.548 233.824 193.791 233.73 194.056L233.259 193.889C233.13 194.254 233.084 194.652 233.139 195.055L233.583 198.355L234.078 198.288L234.473 201.221L233.978 201.287L234.422 204.587C234.459 204.86 234.42 205.125 234.321 205.362L234.783 205.554C234.662 205.844 234.474 206.102 234.236 206.306L233.911 205.927C233.716 206.094 233.476 206.213 233.204 206.263L229.929 206.86L230.019 207.352L227.108 207.882L227.018 207.39L223.743 207.987C223.342 208.06 222.978 208.227 222.671 208.462L222.975 208.859C222.752 209.03 222.567 209.247 222.433 209.494L221.993 209.256C221.809 209.596 221.701 209.982 221.692 210.389L221.615 213.717L222.114 213.729L222.046 216.687L221.546 216.675L221.468 220.004C221.462 220.279 221.382 220.535 221.247 220.754L221.673 221.016C221.509 221.283 221.283 221.509 221.016 221.673L220.754 221.247C220.535 221.382 220.279 221.462 220.004 221.468L216.675 221.546L216.687 222.046L213.729 222.114L213.717 221.615L210.389 221.692C209.982 221.701 209.596 221.809 209.256 221.993L209.494 222.433C209.247 222.567 209.03 222.752 208.859 222.975L208.462 222.671C208.227 222.978 208.06 223.342 207.987 223.743L207.39 227.018L207.882 227.108L207.352 230.019L206.86 229.929L206.263 233.204C206.213 233.476 206.094 233.716 205.927 233.911L206.306 234.236C206.102 234.474 205.844 234.662 205.554 234.783L205.362 234.321C205.125 234.42 204.86 234.459 204.587 234.422L201.287 233.978L201.221 234.473L198.288 234.078L198.355 233.583L195.055 233.139C194.652 233.084 194.254 233.13 193.889 233.259L194.056 233.73C193.791 233.824 193.548 233.973 193.344 234.167L192.999 233.804C192.719 234.07 192.497 234.405 192.363 234.789L191.261 237.93L191.732 238.096L190.753 240.888L190.281 240.722L189.179 243.864C189.088 244.124 188.933 244.342 188.737 244.509L189.061 244.89C188.822 245.093 188.538 245.238 188.233 245.312L188.115 244.826C187.865 244.886 187.597 244.883 187.333 244.804L184.144 243.849L184.001 244.328L181.166 243.48L181.309 243.001L178.12 242.046C177.73 241.929 177.329 241.912 176.949 241.982L177.04 242.474C176.764 242.525 176.5 242.634 176.268 242.793L175.985 242.381C175.667 242.601 175.396 242.896 175.202 243.254L173.622 246.185L174.063 246.422L172.658 249.027L172.218 248.789L170.638 251.72C170.507 251.962 170.32 252.154 170.101 252.288L170.361 252.714C170.093 252.878 169.79 252.976 169.477 253.002L169.437 252.503C169.181 252.524 168.916 252.479 168.668 252.36L165.667 250.918L165.451 251.368L162.784 250.087L163 249.636L160 248.194C159.633 248.018 159.24 247.938 158.853 247.948L158.866 248.448C158.585 248.455 158.308 248.521 158.054 248.643L157.839 248.191C157.49 248.358 157.176 248.607 156.929 248.931L154.91 251.578L155.308 251.881L153.513 254.234L153.116 253.931L151.097 256.578C150.93 256.797 150.714 256.957 150.477 257.055L150.667 257.517C150.377 257.637 150.062 257.687 149.749 257.663L149.787 257.164C149.531 257.145 149.277 257.059 149.051 256.902L146.313 255.009L146.028 255.42L143.594 253.737L143.879 253.325L141.141 251.432C140.806 251.2 140.43 251.06 140.047 251.009L139.982 251.505C139.703 251.468 139.419 251.491 139.149 251.571L139.007 251.091C138.636 251.201 138.287 251.398 137.992 251.679L135.584 253.978L135.93 254.34L133.789 256.383L133.444 256.021L131.036 258.32C130.836 258.51 130.599 258.635 130.349 258.694L130.465 259.181C130.16 259.253 129.841 259.253 129.535 259.181L129.651 258.694C129.401 258.635 129.164 258.51 128.964 258.32L126.556 256.021L126.211 256.383L124.07 254.34L124.416 253.978L122.008 251.679C121.713 251.398 121.364 251.201 120.993 251.091L120.851 251.571C120.581 251.491 120.297 251.468 120.018 251.505L119.953 251.009C119.57 251.06 119.194 251.2 118.859 251.432L116.121 253.325L116.406 253.737L113.972 255.42L113.687 255.009L110.949 256.902C110.723 257.059 110.469 257.145 110.213 257.164L110.251 257.663C109.938 257.687 109.623 257.637 109.333 257.517L109.523 257.055C109.286 256.957 109.07 256.797 108.903 256.578L106.884 253.931L106.487 254.234L104.692 251.881L105.09 251.578L103.071 248.931C102.824 248.607 102.51 248.358 102.161 248.191L101.946 248.643C101.692 248.521 101.415 248.455 101.134 248.448L101.147 247.948C100.76 247.938 100.367 248.018 100 248.194L96.9997 249.636L97.2163 250.087L94.5491 251.368L94.3325 250.918L91.3319 252.36C91.0836 252.479 90.8193 252.524 90.5633 252.503L90.5231 253.002C90.2103 252.976 89.9069 252.878 89.6389 252.714L89.8994 252.288C89.6802 252.154 89.4927 251.962 89.3619 251.72L87.782 248.789L87.3419 249.027L85.9375 246.422L86.3776 246.185L84.7977 243.254C84.6045 242.896 84.3334 242.601 84.0149 242.381L83.7315 242.793C83.4997 242.634 83.2365 242.525 82.9598 242.474L83.0507 241.982C82.6706 241.912 82.2701 241.929 81.8801 242.046L78.6908 243.001L78.8342 243.48L75.9994 244.328L75.856 243.849L72.6667 244.804C72.4027 244.883 72.1347 244.886 71.8851 244.826L71.7674 245.312C71.4624 245.238 71.1781 245.093 70.9391 244.89L71.2631 244.509C71.0675 244.342 70.9123 244.124 70.8211 243.864L69.719 240.722L69.2472 240.888L68.2676 238.096L68.7394 237.93L67.6373 234.789C67.5026 234.405 67.2811 234.07 67.0007 233.804L66.6564 234.167C66.4524 233.973 66.2095 233.824 65.9442 233.73L66.1109 233.259C65.7464 233.13 65.3482 233.084 64.9447 233.139L61.6453 233.583L61.7121 234.078L58.7793 234.473L58.7126 233.978L55.4133 234.422C55.1401 234.459 54.8749 234.42 54.6378 234.321L54.4456 234.783C54.1559 234.662 53.8978 234.474 53.6935 234.236L54.0731 233.911C53.9059 233.716 53.7868 233.476 53.7374 233.204L53.1403 229.929L52.6485 230.019L52.1177 227.108L52.6096 227.018L52.0126 223.743C51.9395 223.342 51.773 222.978 51.5378 222.671L51.141 222.975C50.9698 222.752 50.7532 222.567 50.5059 222.433L50.7443 221.993C50.4044 221.809 50.0182 221.701 49.6112 221.692L46.283 221.615L46.2714 222.114L43.3129 222.046L43.3246 221.546L39.9963 221.468C39.7208 221.462 39.465 221.382 39.2463 221.247L38.9842 221.673C38.7169 221.509 38.4914 221.283 38.3269 221.016L38.7527 220.754C38.6181 220.535 38.538 220.279 38.5316 220.004L38.4542 216.675L37.9544 216.687L37.8856 213.729L38.3855 213.717L38.3081 210.389C38.2986 209.982 38.1912 209.596 38.0069 209.256L37.5674 209.494C37.4333 209.247 37.2482 209.03 37.0249 208.859L37.3291 208.462C37.0223 208.227 36.6576 208.06 36.2571 207.987L32.982 207.39L32.8923 207.882L29.9811 207.352L30.0708 206.86L26.7956 206.263C26.5245 206.213 26.2844 206.094 26.0894 205.927L25.7639 206.306C25.5257 206.102 25.3382 205.844 25.2175 205.554L25.6791 205.362C25.5804 205.125 25.5413 204.86 25.5781 204.587L26.0223 201.287L25.5268 201.221L25.9216 198.288L26.4172 198.355L26.8614 195.055C26.9157 194.652 26.8701 194.254 26.7412 193.889L26.2698 194.056C26.176 193.791 26.0271 193.548 25.8333 193.344L26.1959 192.999C25.9296 192.719 25.5955 192.497 25.2113 192.363L22.0699 191.261L21.9044 191.732L19.112 190.753L19.2776 190.281L16.1361 189.179C15.8761 189.088 15.6575 188.933 15.4911 188.737L15.1103 189.061C14.9069 188.822 14.7621 188.538 14.6882 188.233L15.1742 188.115C15.1138 187.865 15.1167 187.597 15.1957 187.333L16.1506 184.144L15.6716 184.001L16.5204 181.166L16.9994 181.309L17.9543 178.12C18.0711 177.73 18.0883 177.329 18.018 176.949L17.5263 177.04C17.4752 176.764 17.3661 176.5 17.2067 176.268L17.6186 175.985C17.3995 175.667 17.1041 175.396 16.7458 175.202L13.8155 173.622L13.5782 174.063L10.9734 172.658L11.2107 172.218L8.28038 170.638C8.0378 170.507 7.8462 170.32 7.71243 170.101L7.28561 170.361C7.12214 170.093 7.02356 169.79 6.99834 169.477L7.49672 169.437C7.47608 169.181 7.52089 168.916 7.64027 168.668L9.08231 165.667L8.63165 165.451L9.91346 162.784L10.3641 163L11.8062 160C11.9825 159.633 12.0621 159.24 12.0522 158.853L11.5523 158.866C11.5451 158.585 11.4786 158.308 11.3574 158.054L11.8086 157.839C11.642 157.49 11.3926 157.176 11.0689 156.929L8.42183 154.91L8.11861 155.308L5.76563 153.513L6.06884 153.116L3.42174 151.097C3.20261 150.93 3.04269 150.714 2.94487 150.477L2.48256 150.667C2.36301 150.377 2.31311 150.062 2.33713 149.749L2.83567 149.787C2.85533 149.531 2.94093 149.277 3.09769 149.051L4.99138 146.313L4.58015 146.028L6.26342 143.594L6.67465 143.879L8.56833 141.141C8.7999 140.806 8.94002 140.43 8.99065 140.047L8.49496 139.982C8.5318 139.703 8.50945 139.419 8.42943 139.149L8.90877 139.007C8.7988 138.636 8.60165 138.287 8.32056 137.993L6.02186 135.584L5.66019 135.93L3.61691 133.789L3.97858 133.444L1.67989 131.036C1.4896 130.836 1.36531 130.599 1.30583 130.349L0.819425 130.465C0.746743 130.16 0.746743 129.841 0.819425 129.535L1.30583 129.651C1.36531 129.401 1.4896 129.164 1.67989 128.964L3.97858 126.556L3.61691 126.211L5.66019 124.07L6.02186 124.416L8.32056 122.008C8.60165 121.713 8.7988 121.364 8.90877 120.993L8.42942 120.851C8.50944 120.581 8.5318 120.297 8.49496 120.018L8.99065 119.953C8.94002 119.57 8.7999 119.194 8.56833 118.859L6.67465 116.121L6.26342 116.406L4.58015 113.972L4.99138 113.687L3.09769 110.949L2.68646 111.234L3.09769 110.949C2.94093 110.723 2.85533 110.469 2.83567 110.213L2.33713 110.251C2.31311 109.938 2.36301 109.623 2.48256 109.333L2.94486 109.523C3.04269 109.286 3.20261 109.07 3.42174 108.903L6.06885 106.884L5.76563 106.487L8.11861 104.692L8.42183 105.09L11.0689 103.071C11.3926 102.824 11.642 102.51 11.8086 102.161L11.3574 101.946C11.4786 101.692 11.5451 101.415 11.5523 101.134L12.0522 101.147C12.0621 100.76 11.9825 100.367 11.8062 100L10.3641 96.9997L9.91346 97.2163L8.63165 94.5491L9.08231 94.3325L7.64027 91.3319C7.52089 91.0836 7.47608 90.8193 7.49672 90.5633L6.99834 90.5231C7.02356 90.2103 7.12214 89.9069 7.28561 89.6389L7.71243 89.8994C7.8462 89.6802 8.0378 89.4927 8.28038 89.3619L11.2107 87.782L10.9734 87.3419L13.5782 85.9375L13.8155 86.3776L16.7458 84.7977C17.1041 84.6045 17.3995 84.3334 17.6186 84.0149L17.2067 83.7315C17.3661 83.4997 17.4752 83.2365 17.5263 82.9598L18.018 83.0507C18.0883 82.6706 18.0711 82.2701 17.9543 81.8801L16.9994 78.6908L16.5204 78.8342L15.6716 75.9994L16.1506 75.856L15.1957 72.6667C15.1167 72.4027 15.1138 72.1347 15.1742 71.8851L14.6882 71.7674C14.7621 71.4624 14.9069 71.1781 15.1103 70.9391L15.4911 71.2631C15.6575 71.0675 15.8761 70.9123 16.1362 70.8211L19.2776 69.719L19.112 69.2472L21.9044 68.2676L22.0699 68.7394L25.2113 67.6373C25.5955 67.5026 25.9296 67.2811 26.1959 67.0007L25.8333 66.6564C26.0271 66.4524 26.176 66.2095 26.2698 65.9442L26.7412 66.1109C26.8701 65.7464 26.9157 65.3482 26.8614 64.9447L26.4172 61.6453L25.9216 61.7121L25.5268 58.7793L26.0223 58.7126L25.5781 55.4132C25.5413 55.1401 25.5804 54.8749 25.6791 54.6378L25.2175 54.4456C25.3382 54.1559 25.5257 53.8978 25.7639 53.6935L26.0894 54.0731C26.2844 53.9059 26.5245 53.7868 26.7956 53.7374L30.0708 53.1403L29.9811 52.6485L32.8923 52.1177L32.982 52.6096L36.2571 52.0126C36.6576 51.9395 37.0223 51.773 37.3291 51.5378L37.0249 51.141C37.2482 50.9698 37.4333 50.7532 37.5674 50.5059L38.0069 50.7442C38.1912 50.4044 38.2986 50.0182 38.3081 49.6112L38.3855 46.283L37.8856 46.2714L37.9544 43.3129L38.4542 43.3246L38.5316 39.9964C38.538 39.7208 38.6181 39.465 38.7527 39.2463L38.3269 38.9842C38.4914 38.7169 38.7169 38.4914 38.9842 38.3269L39.2463 38.7527C39.465 38.6181 39.7208 38.538 39.9963 38.5316L43.3246 38.4542L43.3129 37.9544L46.2714 37.8856L46.283 38.3855L49.6112 38.3081C50.0182 38.2986 50.4044 38.1912 50.7443 38.0069L50.5059 37.5674C50.7532 37.4333 50.9698 37.2482 51.141 37.0249L51.5378 37.3291C51.773 37.0223 51.9395 36.6576 52.0126 36.2571L52.6096 32.982L52.1177 32.8923L52.6485 29.9811L53.1403 30.0708L53.7374 26.7956C53.7868 26.5245 53.9059 26.2844 54.0731 26.0894L53.6935 25.7639C53.8978 25.5257 54.1559 25.3382 54.4456 25.2175L54.6378 25.6791C54.8749 25.5804 55.1401 25.5413 55.4132 25.5781L58.7126 26.0223L58.7793 25.5268L61.7121 25.9216L61.6453 26.4172L64.9447 26.8614C65.3482 26.9157 65.7464 26.8701 66.1109 26.7412L65.9442 26.2698C66.2095 26.176 66.4524 26.0271 66.6564 25.8333L67.0007 26.1959C67.2811 25.9296 67.5026 25.5955 67.6373 25.2113L68.7394 22.0699L68.2676 21.9044L69.2472 19.112L69.719 19.2776L70.8211 16.1361C70.9123 15.8761 71.0675 15.6575 71.2631 15.4911L70.9391 15.1103C71.1781 14.9069 71.4624 14.7621 71.7674 14.6882L71.8851 15.1742C72.1347 15.1138 72.4027 15.1167 72.6667 15.1957L75.856 16.1506L75.9994 15.6716L78.8342 16.5204L78.6908 16.9994L81.8801 17.9543C82.2701 18.0711 82.6706 18.0883 83.0507 18.018L82.9598 17.5263C83.2365 17.4752 83.4997 17.3661 83.7315 17.2067L84.0149 17.6186C84.3334 17.3995 84.6045 17.1041 84.7977 16.7458L86.3776 13.8155L85.9375 13.5782L87.3419 10.9734L87.782 11.2107L89.3619 8.28038C89.4927 8.0378 89.6802 7.8462 89.8994 7.71243L89.6389 7.28561C89.9069 7.12214 90.2103 7.02356 90.5231 6.99834L90.5633 7.49672C90.8193 7.47608 91.0836 7.52089 91.3319 7.64027L94.3325 9.08231L94.5491 8.63165L97.2163 9.91346L96.9997 10.3641L100 11.8062C100.367 11.9825 100.76 12.0621 101.147 12.0522L101.134 11.5523C101.415 11.5451 101.692 11.4786 101.946 11.3574L102.161 11.8086C102.51 11.642 102.824 11.3926 103.071 11.0689L105.09 8.42183L104.692 8.11861L106.487 5.76563L106.884 6.06884L108.903 3.42174C109.07 3.20261 109.286 3.04269 109.523 2.94486L109.333 2.48256C109.623 2.36301 109.938 2.31311 110.251 2.33713L110.213 2.83567C110.469 2.85533 110.723 2.94093 110.949 3.09769L113.687 4.99138L113.972 4.58015L116.406 6.26342L116.121 6.67465L118.859 8.56833C119.194 8.7999 119.57 8.94002 119.953 8.99065L120.018 8.49496C120.297 8.5318 120.581 8.50944 120.851 8.42942L120.993 8.90877C121.364 8.7988 121.713 8.60165 122.008 8.32056L124.416 6.02186L124.07 5.66019Z" fill="#202020" stroke="white" stroke-dasharray="18 8"/>
</svg>
