<svg width="260" height="260" viewBox="0 0 260 260" fill="none" xmlns="http://www.w3.org/2000/svg">
<path d="M129.167 1.15792C129.671 0.820976 130.329 0.820976 130.833 1.15792L151.859 15.2039C152.41 15.5721 153.085 15.7063 153.735 15.577L178.536 10.6466C179.131 10.5283 179.738 10.78 180.076 11.2843L194.126 32.3073C194.494 32.8584 195.066 33.2407 195.716 33.3701L220.516 38.3057C221.111 38.4241 221.576 38.8892 221.694 39.4841L226.63 64.2836C226.759 64.9337 227.142 65.5059 227.693 65.8742L248.716 79.9245C249.22 80.2615 249.472 80.8691 249.353 81.4641L244.423 106.265C244.294 106.915 244.428 107.59 244.796 108.141L258.842 129.167C259.179 129.671 259.179 130.329 258.842 130.833L244.796 151.859C244.428 152.41 244.294 153.085 244.423 153.735L249.353 178.536C249.472 179.131 249.22 179.738 248.716 180.076L227.693 194.126C227.142 194.494 226.759 195.066 226.63 195.716L221.694 220.516C221.576 221.111 221.111 221.576 220.516 221.694L195.716 226.63C195.066 226.759 194.494 227.142 194.126 227.693L180.076 248.716C179.738 249.22 179.131 249.472 178.536 249.353L153.735 244.423C153.085 244.294 152.41 244.428 151.859 244.796L130.833 258.842C130.329 259.179 129.671 259.179 129.167 258.842L108.141 244.796C107.59 244.428 106.915 244.294 106.265 244.423L81.4641 249.353C80.8691 249.472 80.2615 249.22 79.9245 248.716L65.8742 227.693C65.5059 227.142 64.9337 226.759 64.2836 226.63L39.4841 221.694C38.8892 221.576 38.4241 221.111 38.3057 220.516L33.3701 195.716C33.2407 195.066 32.8584 194.494 32.3073 194.126L11.2843 180.076C10.78 179.738 10.5283 179.131 10.6466 178.536L15.577 153.735C15.7063 153.085 15.5721 152.41 15.2038 151.859L1.15792 130.833C0.820977 130.329 0.820976 129.671 1.15792 129.167L15.2039 108.141C15.5721 107.59 15.7063 106.915 15.577 106.265L10.6466 81.4641C10.5283 80.8691 10.78 80.2615 11.2843 79.9245L11.0065 79.5088L11.2843 79.9245L32.3073 65.8742C32.8584 65.5059 33.2407 64.9337 33.3701 64.2836L38.3057 39.4841C38.4241 38.8892 38.8892 38.4241 39.4841 38.3057L64.2836 33.3701C64.9337 33.2407 65.5059 32.8584 65.8742 32.3073L79.9245 11.2843L79.5088 11.0065L79.9245 11.2843C80.2615 10.78 80.8691 10.5283 81.4641 10.6466L106.265 15.577C106.915 15.7063 107.59 15.5721 108.141 15.2038L129.167 1.15792Z" fill="#202020" stroke="white"/>
</svg>
